<svg t="1700447936538" class="icon" viewBox="0 0 1024 1024" version="1.1" xmlns="http://www.w3.org/2000/svg" p-id="4027" width="18" height="18"><path d="M562.434 690.459c-92.632 0-167.994-75.361-167.994-167.992 0-92.632 75.362-167.994 167.994-167.994 92.631 0 167.992 75.362 167.992 167.994 0 92.631-75.362 167.992-167.992 167.992z m0-275.986c-59.548 0-107.994 48.446-107.994 107.994 0 59.547 48.446 107.992 107.994 107.992 59.547 0 107.992-48.445 107.992-107.992 0-59.548-48.446-107.994-107.992-107.994zM264.947 968.943c-81.053 0-146.994-65.941-146.994-146.994 0-81.052 65.941-146.993 146.994-146.993S411.94 740.897 411.94 821.949c0 81.053-65.94 146.994-146.993 146.994z m0-233.987c-47.969 0-86.994 39.025-86.994 86.993 0 47.969 39.025 86.994 86.994 86.994 47.968 0 86.994-39.025 86.994-86.994-0.001-47.968-39.026-86.993-86.994-86.993zM263.949 361.477c-77.196 0-140-62.804-140-140s62.804-140 140-140 140 62.804 140 140c-0.001 77.195-62.804 140-140 140z m0-220c-44.112 0-80 35.888-80 80s35.888 80 80 80 80-35.888 80-80c-0.001-44.113-35.888-80-80-80zM807.917 890.955c-66.169 0-120.001-53.832-120.001-120s53.832-120 120.001-120c66.168 0 119.999 53.832 119.999 120s-53.831 120-119.999 120z m0-180c-33.085 0-60.001 26.916-60.001 60s26.916 60 60.001 60c33.084 0 59.999-26.916 59.999-60s-26.915-60-59.999-60zM810.422 383.481c-60.654 0-110.001-49.346-110.001-110s49.347-110 110.001-110c60.653 0 109.999 49.346 109.999 110s-49.346 110-109.999 110z m0-160c-27.57 0-50.001 22.43-50.001 50s22.431 50 50.001 50c27.569 0 49.999-22.43 49.999-50s-22.43-50-49.999-50z" p-id="4028" fill="#ffffff"></path><path d="M684.66 602.225l65.991 65.991-42.425 42.426-65.991-65.991zM371.173 288.742l110.993 110.994-42.426 42.426-110.993-110.994zM716.76 327.215l42.366 42.486-75.86 75.645-42.365-42.486zM442.613 600.59l42.366 42.487-98.353 98.076-42.367-42.487z" p-id="4029" fill="#ffffff"></path></svg>