<svg t="1706541615004" class="icon" viewBox="0 0 1024 1024" version="1.1" xmlns="http://www.w3.org/2000/svg" p-id="4444" width="18" height="18"><path d="M535.552 615.04a48 48 0 1 1-18.72 92.224l-76.8 76.736H308.32l-89.984-89.984H128v-32h103.584l89.952 89.984h105.248l66.4-66.368a48 48 0 0 1 42.368-70.592z m-203.328-38.912a48 48 0 1 1 0-32.032h363.36l119.904 119.936h78.304v32h-91.52l-119.968-119.936z m203.328 70.912a16 16 0 1 0 0 32 16 16 0 0 0 0-32z m-248.576-102.944a16 16 0 1 0 0 32 16 16 0 0 0 0-32zM384 400a48 48 0 1 1-45.248 64H128v-32h210.72a48 48 0 0 1 45.28-32z m86.144-80l95.968 95.968h124.64a48 48 0 1 1 0 32L552.864 448l-96.032-96.032L138.752 352v-32h331.392zM384 432a16 16 0 1 0 0 32 16 16 0 0 0 0-32z m352-16a16 16 0 1 0 0 32 16 16 0 0 0 0-32z m-128-176a48 48 0 0 1 45.28 32h226.304v32h-226.336A48 48 0 1 1 608 240z m0 32a16 16 0 1 0 0 32 16 16 0 0 0 0-32z" fill="#ffffff" p-id="4445"></path><path d="M534.592 30.88l-22.112-21.12-11.104 10.752c-122.56 118.592-246.528 173.888-372.48 166.944l-16.896-0.96v462.656c0 118.4 128.096 234.24 381.6 351.04l20.32 9.28 6.4-2.72c259.968-109.088 391.68-227.328 391.68-357.6V185.792l-17.568 1.728c-115.552 11.296-235.392-40.512-359.84-156.64z m-22.08 23.168c123.328 115.136 244.512 171.04 363.456 166.72l4.032-0.192v428.576l-0.128 6.272c-4.384 108.928-122.752 215.104-358.208 316l-7.296 3.072-7.232-3.296-26.496-12.416C255.424 851.264 144 746.976 144 649.152V219.936l7.04 0.096c119.36-0.32 236.096-52.32 349.888-155.264l11.584-10.72z" fill="#ffffff" p-id="4446"></path></svg>