<svg t="1700530518482" class="icon" viewBox="0 0 1024 1024" version="1.1" xmlns="http://www.w3.org/2000/svg" p-id="7347" width="18" height="18"><path d="M250.312 381C267.474 261.33 378.094 169 512 169s244.526 92.33 261.688 212H849.5c15.74 0 28.5 12.76 28.5 28.5v17c0 15.74-12.76 28.5-28.5 28.5h-77.287C750.933 570.268 642.529 658 512 658c-130.529 0-238.933-87.732-260.213-203H174.5c-15.74 0-28.5-12.76-28.5-28.5v-17c0-15.74 12.76-28.5 28.5-28.5h75.812z m13.722 12.023H182.79c-13.69 0-24.789 11.098-24.789 24.79 0 13.69 11.098 24.788 24.79 24.788h82.258C280.685 555.611 386.183 643 514 643s233.315-87.39 248.952-200.399h82.259c13.69 0 24.789-11.098 24.789-24.789 0-13.69-11.098-24.789-24.79-24.789h-81.244C752.638 275.866 645.05 184 514 184s-238.638 91.866-249.966 209.023z" fill="#ffffff" p-id="7348"></path><path d="M221.016 454C222.687 607.425 352.326 744 512 744c159.675 0 289.313-136.575 290.984-290H813c0 165.685-134.762 300-301 300S211 619.685 211 454h10.016z" fill="#ffffff" p-id="7349"></path><path d="M268.013 470c1.365 105.267 110.303 202 244.487 202s243.122-96.733 244.487-202H767c0 117.084-113.944 212-254.5 212C371.944 682 258 587.084 258 470h10.013z" fill="#ffffff" p-id="7350"></path><path d="M699.846 437c-6.474 0-11.815-5.108-12.139-11.675-1.942-45.403-18.614-82.211-49.61-109.372-23.064-20.188-45.239-27.08-45.481-27.16-6.394-1.946-10.036-8.757-8.093-15.162 1.942-6.405 8.74-10.053 15.133-8.107 1.133 0.324 27.516 8.513 54.466 32.106 24.845 21.81 55.112 61.456 57.864 126.641 0.324 6.73-4.937 12.405-11.573 12.648-0.162 0-0.405 0.081-0.567 0.081zM551.963 281h-0.8l-16.006-1.117c-6.643-0.478-11.605-6.142-11.125-12.763a11.936 11.936 0 0 1 12.805-11.088l16.006 1.117c6.643 0.478 11.605 6.142 11.125 12.763-0.48 6.222-5.762 11.088-12.005 11.088z" fill="#ffffff" p-id="7351"></path><path d="M192.5 400H246v33h-53.5c-9.113 0-16.5-7.387-16.5-16.5s7.387-16.5 16.5-16.5zM831.5 400H778v33h53.5c9.113 0 16.5-7.387 16.5-16.5s-7.387-16.5-16.5-16.5z" fill="#ffffff" p-id="7352"></path><path d="M272 190.8l-22.336 7.943 0.652-23.697-14.456-18.789 22.738-6.703L272 130l13.402 19.554 22.738 6.703-14.456 18.789 0.652 23.697z" fill="#ffffff" p-id="7353"></path><path d="M272 182.4l-14.107 5.016 0.412-14.966-9.13-11.866 14.36-4.234L272 144l8.464 12.35 14.361 4.234-9.13 11.866 0.412 14.966z" fill="#ffffff" p-id="7354"></path><path d="M361 161m-15 0a15 15 0 1 0 30 0 15 15 0 1 0-30 0Z" fill="#ffffff" p-id="7355"></path><path d="M361 161m-5 0a5 5 0 1 0 10 0 5 5 0 1 0-10 0Z" fill="#ffffff" p-id="7356"></path><path d="M189 231m-25 0a25 25 0 1 0 50 0 25 25 0 1 0-50 0Z" fill="#ffffff" p-id="7357"></path><path d="M189 231m-15 0a15 15 0 1 0 30 0 15 15 0 1 0-30 0Z" fill="#ffffff" p-id="7358"></path><path d="M512 957c-65.17 0-118-26.415-118-59s52.83-59 118-59 118 26.415 118 59-52.83 59-118 59z m0-10c59.647 0 108-21.938 108-49s-48.353-49-108-49-108 21.938-108 49 48.353 49 108 49z" fill="#ffffff" p-id="7359"></path><path d="M437 898a75 36 0 1 0 150 0 75 36 0 1 0-150 0Z" fill="#ffffff" p-id="7360"></path><path d="M472 751h10v94h-10zM543 751h10v94h-10z" fill="#ffffff" p-id="7361"></path></svg>