<svg t="1700223000106" class="icon" viewBox="0 0 1024 1024" version="1.1" xmlns="http://www.w3.org/2000/svg" p-id="4115" width="18" height="18"><path d="M193 317h-29a6 6 0 0 0-6 6v408a6 6 0 0 0 6 6h83.806v121.532a6 6 0 0 0 10.195 4.29L386.698 737h200.66l60.159 58.815A66.346 66.346 0 0 1 635 797H411.154L299.945 905.725c-26.064 25.482-67.85 25.01-93.332-1.054a66 66 0 0 1-18.807-46.14V797H164c-36.45 0-66-29.55-66-66V323c0-36.45 29.55-66 66-66h29v60z m642.194 449.532a66 66 0 0 1-18.807 46.139c-25.482 26.064-67.268 26.536-93.332 1.054L582.183 676H299c-36.45 0-66-29.55-66-66V164c0-36.45 29.55-66 66-66h560c36.45 0 66 29.55 66 66v446c0 36.45-29.55 66-66 66h-23.806v90.532z m-60-150.532H859a6 6 0 0 0 6-6V164a6 6 0 0 0-6-6H299a6 6 0 0 0-6 6v446a6 6 0 0 0 6 6h307.64L765 770.822a6 6 0 0 0 10.194-4.29V616z" fill="#ffffff" p-id="4116"></path><path d="M757.5 384.5m0-49.5a49.5 49.5 0 1 0 0 99 49.5 49.5 0 1 0 0-99Z" fill="#ffffff" p-id="4117"></path><path d="M575.5 384.5m0-49.5a49.5 49.5 0 1 0 0 99 49.5 49.5 0 1 0 0-99Z" fill="#ffffff" p-id="4118"></path><path d="M392.5 384.5m0-49.5a49.5 49.5 0 1 0 0 99 49.5 49.5 0 1 0 0-99Z" fill="#ffffff" p-id="4119"></path></svg>