<svg t="1700490941128" class="icon" viewBox="0 0 1024 1024" version="1.1" xmlns="http://www.w3.org/2000/svg" p-id="5140" width="18" height="18"><path d="M192 128V64H64v896h128v-64h-64V672h64v-64h-64V384h64v-64h-64V128h64zM960 637.67v-59.34a25.14 25.14 0 0 0-20.21-24.65l-76.67-15.33a25.25 25.25 0 0 1-18.75-16.2q-3.81-10.49-8.51-20.53a25.26 25.26 0 0 1 1.79-24.74L881 411.81a25.14 25.14 0 0 0-3.14-31.73l-42-42a25.14 25.14 0 0 0-31.67-3.08l-65.06 43.38a25.26 25.26 0 0 1-24.74 1.79q-10-4.69-20.53-8.51a25.25 25.25 0 0 1-16.2-18.75l-15.33-76.67A25.14 25.14 0 0 0 637.67 256h-59.34a25.14 25.14 0 0 0-24.65 20.21l-15.33 76.67a25.25 25.25 0 0 1-16.2 18.75q-10.49 3.81-20.53 8.51a25.26 25.26 0 0 1-24.74-1.79L411.81 335a25.14 25.14 0 0 0-31.73 3.14l-42 42a25.14 25.14 0 0 0-3.08 31.67l43.38 65.06a25.26 25.26 0 0 1 1.79 24.74q-4.69 10-8.51 20.53a25.25 25.25 0 0 1-18.75 16.2l-76.67 15.33A25.14 25.14 0 0 0 256 578.33v59.35a25.14 25.14 0 0 0 20.21 24.65l76.67 15.33a25.25 25.25 0 0 1 18.75 16.2q3.81 10.49 8.51 20.53a25.26 25.26 0 0 1-1.79 24.74L335 804.19a25.14 25.14 0 0 0 3.14 31.73l42 42a25.14 25.14 0 0 0 31.67 3.08l65.06-43.38a25.26 25.26 0 0 1 24.74-1.79q10 4.69 20.53 8.51a25.25 25.25 0 0 1 16.2 18.75l15.33 76.67A25.14 25.14 0 0 0 578.33 960h59.35a25.14 25.14 0 0 0 24.65-20.21l15.33-76.67a25.25 25.25 0 0 1 16.2-18.75q10.49-3.81 20.53-8.51a25.26 25.26 0 0 1 24.74 1.79L804.19 881a25.14 25.14 0 0 0 31.73-3.14l42-42a25.14 25.14 0 0 0 3.08-31.67l-43.38-65.06a25.26 25.26 0 0 1-1.79-24.74q4.69-10 8.51-20.53a25.25 25.25 0 0 1 18.75-16.2l76.67-15.33A25.14 25.14 0 0 0 960 637.67z m-245.33 77A150.86 150.86 0 1 1 758.86 608a149.87 149.87 0 0 1-44.19 106.67z" p-id="5141" fill="#ffffff"></path></svg>